<?xml version="1.0" standalone="no"?>

<!DOCTYPE svg PUBLIC "-//W3C//DTD SVG 20010904//EN"
 "http://www.w3.org/TR/2001/REC-SVG-20010904/DTD/svg10.dtd">

<svg version="1.0" xmlns="http://www.w3.org/2000/svg"
 width="784.000000pt" height="784.000000pt" viewBox="0 0 784.000000 784.000000"
 preserveAspectRatio="xMidYMid meet">

  <g transform="translate(0.000000,784.000000) scale(0.100000,-0.100000)"
  fill='#f1f2f9' stroke="none">
  <path d="M5064 7448 c-348 -18 -709 -143 -1025 -353 -189 -126 -270 -155 -439
  -155 -126 0 -188 17 -350 96 -167 82 -236 109 -365 139 -509 122 -1042 -31
  -1414 -405 -202 -203 -339 -462 -402 -760 -29 -134 -32 -429 -6 -550 9 -41 23
  -109 32 -150 22 -98 21 -273 0 -365 -26 -112 -72 -214 -135 -305 -155 -223
  -214 -315 -269 -421 -154 -293 -248 -609 -282 -944 -15 -148 -7 -478 16 -625
  84 -555 340 -1058 737 -1446 200 -196 410 -345 653 -464 363 -177 724 -260
  1131 -260 201 0 326 12 518 51 289 58 603 184 863 348 196 123 346 186 543
  228 89 18 137 19 650 12 238 -3 309 4 495 53 617 162 1121 657 1299 1276 50
  176 68 310 68 512 0 326 -61 569 -221 888 -78 153 -111 266 -118 404 -8 145 7
  229 78 436 150 441 168 826 59 1238 -160 604 -601 1114 -1179 1362 -298 128
  -592 178 -937 160z m-2362 -462 c24 -35 -14 -76 -52 -56 -25 13 -26 55 -3 68
  18 11 44 5 55 -12z m2889 -8 c9 -16 7 -24 -9 -41 -23 -22 -45 -18 -62 12 -8
  17 -7 24 10 41 22 22 45 18 61 -12z m-1384 -520 c47 -44 16 -118 -50 -118 -42
  0 -70 29 -70 72 0 61 74 89 120 46z m1841 -68 c46 -43 17 -120 -45 -120 -47 0
  -73 24 -73 67 0 65 71 96 118 53z m755 -97 c8 -7 -11 -33 -24 -33 -5 0 -9 9
  -9 20 0 19 20 27 33 13z m-177 -131 c-24 -46 -86 -101 -86 -76 0 14 43 75 63
  89 32 22 39 18 23 -13z m-2716 -47 c26 -32 -13 -81 -47 -59 -35 22 -23 74 17
  74 10 0 23 -7 30 -15z m2550 -29 c0 -20 -19 -31 -32 -18 -6 6 -7 15 -4 21 10
  16 36 13 36 -3z m284 -8 c-12 -41 -112 -234 -169 -328 -31 -51 -54 -94 -53
  -96 2 -1 23 2 46 8 24 6 45 8 49 5 11 -12 -30 -100 -76 -160 -147 -195 -408
  -263 -467 -122 -20 48 -18 68 14 160 34 98 103 207 186 293 61 65 169 152 188
  152 6 0 8 -17 3 -46 -8 -53 -7 -53 70 12 59 50 195 144 207 144 5 0 6 -10 2
  -22z m96 -83 c0 -16 -27 -32 -37 -22 -3 4 -3 13 0 22 8 20 37 20 37 0z m-70
  -174 c0 -13 -50 -71 -61 -71 -16 0 -10 26 12 54 20 25 49 35 49 17z m-4216
  -202 c19 -15 26 -30 26 -54 0 -36 -36 -75 -70 -75 -34 0 -70 39 -70 75 0 36
  36 75 70 75 10 0 29 -9 44 -21z m2799 -9 c132 -50 253 -164 299 -280 23 -60
  26 -119 15 -335 -9 -188 -55 -329 -162 -501 -25 -40 -45 -76 -44 -80 0 -5 30
  -31 66 -59 36 -27 87 -76 114 -108 125 -148 136 -257 45 -442 -37 -77 -45
  -102 -50 -175 -9 -115 -22 -187 -53 -297 l-26 -93 -34 21 c-67 42 -135 70
  -216 89 -90 22 -108 24 -106 13 4 -23 -5 -21 -43 10 -24 19 -62 47 -86 62 -40
  27 -44 27 -60 11 -11 -10 -13 -19 -7 -24 57 -41 170 -112 178 -112 6 0 5 -5
  -1 -13 -9 -10 3 -15 54 -25 77 -15 176 -53 239 -93 l46 -29 -67 -131 c-77
  -151 -195 -316 -254 -355 -54 -36 -129 -43 -216 -19 -67 18 -114 57 -114 95 0
  18 -4 17 -52 -8 -45 -23 -65 -27 -134 -27 -73 0 -88 4 -160 39 -54 27 -100 60
  -146 105 -65 64 -68 66 -105 59 -21 -4 -90 -5 -153 -2 -219 10 -446 -55 -648
  -185 -34 -23 -66 -41 -70 -41 -4 0 -20 23 -37 51 -32 54 -160 183 -213 215
  -18 10 -32 21 -32 24 0 8 116 100 126 100 5 0 39 -30 76 -67 l67 -67 111 57
  c61 31 116 57 124 57 21 0 48 37 42 57 -3 10 -26 43 -51 73 l-45 55 27 8 c98
  28 235 47 346 47 l122 1 -46 24 c-111 58 -209 175 -235 281 -9 38 -21 73 -26
  79 -16 17 -29 -18 -24 -62 3 -24 4 -43 2 -43 -3 0 -51 11 -108 25 -221 52
  -403 57 -669 19 l-46 -6 -5 93 c-5 84 -26 169 -62 250 -6 13 2 17 46 23 29 4
  62 9 74 12 22 6 30 -9 76 -141 l14 -40 153 1 c96 1 157 6 164 13 11 11 1 93
  -19 159 -6 20 -3 22 37 22 57 0 226 -25 309 -44 91 -22 118 -20 158 11 l35 27
  26 -34 c193 -255 522 -509 826 -636 61 -26 112 -51 114 -57 2 -6 16 5 31 23
  l27 33 64 -45 c121 -86 149 -100 155 -83 4 9 -1 24 -11 35 -33 36 -169 124
  -189 122 -49 -4 -291 113 -446 215 -110 73 -236 171 -282 220 l-28 29 104 157
  c57 86 143 223 191 304 49 82 89 149 90 150 1 2 54 -24 118 -56 213 -107 434
  -168 641 -178 l128 -6 -11 22 c-7 12 -30 34 -51 50 -31 22 -54 29 -114 34
  -161 14 -370 73 -556 158 -50 23 -89 43 -88 44 2 2 35 -4 73 -12 198 -41 384
  76 512 322 53 102 81 188 93 277 23 188 -66 349 -240 434 -33 16 -60 32 -60
  37 0 4 17 7 38 7 27 0 45 7 58 21 10 12 33 31 49 41 38 24 114 20 198 -12z
  m-412 -33 c40 -18 19 -21 -51 -7 -90 17 -180 -14 -265 -91 -92 -85 -220 -303
  -276 -469 -28 -86 -31 -198 -5 -263 24 -62 14 -72 -16 -15 -20 38 -23 56 -22
  153 0 122 17 182 94 336 101 200 209 317 338 366 45 16 154 11 203 -10z m132
  -129 c162 -75 228 -230 179 -423 -29 -115 -57 -175 -81 -175 -11 0 -37 -19
  -58 -43 -51 -58 -58 -61 -93 -40 -27 15 -29 21 -24 53 l5 35 -24 -26 c-22 -24
  -26 -25 -50 -12 -31 16 -30 14 -17 47 7 21 6 26 -5 26 -8 0 -19 -9 -25 -20
  -10 -19 -13 -19 -41 -5 -27 14 -29 19 -24 53 l6 37 -24 -26 c-22 -24 -26 -25
  -50 -12 -22 11 -25 18 -20 43 6 35 -9 40 -30 10 -14 -20 -14 -20 -38 -1 l-24
  20 23 40 c27 49 28 67 2 106 -11 17 -20 43 -20 59 0 73 146 262 221 285 52 16
  137 4 212 -31z m-1734 -629 c48 -11 86 -28 224 -103 48 -26 87 -52 87 -58 0
  -53 -63 -214 -111 -284 l-30 -44 -81 41 c-45 23 -112 60 -148 83 -72 45 -126
  53 -188 26 -29 -13 -36 -13 -60 0 -97 55 -95 211 4 286 74 57 196 78 303 53z
  m1281 -51 c1 -31 2 -32 15 -14 8 10 16 23 18 29 1 5 16 7 35 3 28 -7 31 -10
  25 -37 -7 -35 11 -39 29 -6 11 21 17 23 46 15 29 -8 33 -12 28 -33 -8 -33 11
  -42 25 -11 10 21 17 24 38 19 37 -8 41 -12 34 -28 -3 -8 -2 -23 2 -32 6 -16 9
  -14 21 10 16 30 21 31 58 17 35 -13 34 -49 -4 -85 -23 -22 -41 -29 -85 -33
  -101 -8 -276 49 -309 101 -34 54 -32 117 4 117 16 0 20 -7 20 -32z m-261 -144
  c14 -25 51 -69 82 -97 l58 -52 -79 -130 c-116 -191 -294 -450 -310 -450 -13 0
  -121 120 -140 156 -6 11 4 34 36 80 60 85 122 198 126 229 6 47 -17 33 -58
  -35 -23 -37 -49 -72 -59 -78 -29 -16 -239 -1 -330 23 -44 12 -81 23 -83 25 -2
  2 10 24 27 49 40 58 68 123 91 211 17 68 19 70 46 67 16 -2 81 -4 144 -5 92
  -1 138 4 230 25 63 15 133 27 155 27 38 1 42 -2 64 -45z m-2080 -535 c62 -13
  98 -40 122 -93 24 -54 24 -111 -3 -207 -11 -44 -19 -82 -15 -85 17 -18 54 44
  65 109 l7 42 114 38 c63 21 130 39 150 40 l35 2 29 -85 c21 -60 31 -111 35
  -175 l4 -90 -67 -18 c-132 -35 -267 -96 -355 -159 -119 -85 -141 -94 -194 -73
  -55 22 -83 49 -116 116 -49 96 -64 170 -64 319 -1 106 3 146 17 187 20 58 79
  119 124 129 16 3 33 7 38 9 17 6 23 5 74 -6z m1014 -67 c19 -17 61 -142 55
  -167 -3 -14 -23 -17 -137 -18 l-135 -2 -17 55 c-9 30 -24 72 -33 94 -10 21
  -15 40 -12 43 8 8 148 18 206 15 32 -2 63 -11 73 -20z m-2023 -417 c26 -32
  -13 -81 -47 -59 -35 22 -23 74 17 74 10 0 23 -7 30 -15z m2296 -419 c29 -29
  57 -63 64 -75 10 -20 9 -23 -12 -28 -13 -4 -68 -29 -123 -57 l-100 -52 -72 73
  -73 72 33 25 c57 42 171 94 211 95 11 1 42 -22 72 -53z m3368 -122 c9 -8 16
  -22 16 -29 0 -13 -26 -45 -36 -45 -39 0 -59 60 -26 79 23 14 28 14 46 -5z
  m-3799 -252 c79 -54 127 -98 163 -149 l29 -42 -96 -98 c-53 -54 -130 -145
  -171 -202 -119 -167 -204 -240 -279 -241 -21 0 -22 2 -10 18 11 14 10 13 -9
  -2 -21 -18 -23 -18 -61 -1 -168 75 -318 472 -240 633 21 43 68 82 101 82 9 0
  18 6 20 13 3 8 29 12 81 12 124 0 162 -43 180 -205 6 -55 14 -100 19 -100 19
  0 30 47 25 106 -5 71 -6 69 86 182 60 72 60 72 81 54 12 -11 48 -38 81 -60z
  m-2281 -318 c9 -8 16 -22 16 -29 0 -13 -26 -45 -36 -45 -39 0 -59 60 -26 79
  23 14 28 14 46 -5z m5066 -59 c26 -32 -13 -81 -47 -59 -35 22 -23 74 17 74 10
  0 23 -7 30 -15z m444 -336 c19 -15 26 -30 26 -54 0 -36 -36 -75 -70 -75 -34 0
  -70 39 -70 75 0 36 36 75 70 75 10 0 29 -9 44 -21z m-2059 -259 c9 -15 -3 -47
  -21 -54 -42 -16 -76 51 -37 73 18 10 46 0 58 -19z m1897 -27 c23 -21 23 -36
  -1 -57 -15 -14 -24 -15 -40 -6 -26 13 -28 55 -3 69 23 14 23 14 44 -6z m-4568
  -79 c22 -21 20 -40 -6 -58 -27 -19 -58 -5 -58 27 0 43 35 60 64 31z m1994
  -169 c36 -30 47 -66 32 -110 -34 -103 -190 -77 -190 32 0 89 92 134 158 78z
  m-1731 -17 c47 -44 16 -118 -50 -118 -43 0 -70 29 -69 72 2 62 73 89 119 46z
  m1236 -78 c79 -30 167 -112 207 -194 37 -74 50 -184 30 -255 l-11 -43 -66 7
  c-149 16 -423 97 -591 175 -81 38 -92 46 -86 64 38 125 142 224 274 261 70 19
  167 13 243 -15z m-445 -429 c150 -76 448 -161 560 -161 23 0 43 -4 46 -9 9
  -14 -82 -91 -139 -117 -155 -71 -319 -42 -442 78 -30 30 -62 75 -77 107 -25
  56 -44 141 -32 141 4 0 41 -18 84 -39z"/>
  <path d="M6342 5857 c-27 -29 -29 -57 -3 -57 22 0 51 35 51 62 0 25 -22 22
  -48 -5z"/>
  <path d="M6500 5804 c-11 -12 -11 -18 2 -30 14 -14 17 -14 32 1 13 13 14 20 5
  31 -15 18 -24 18 -39 -2z"/>
  <path d="M6351 5725 c-58 -63 -53 -102 6 -55 28 22 73 79 73 92 0 23 -42 3
  -79 -37z"/>
  <path d="M6250 5610 c-8 -5 -27 -10 -41 -10 -31 0 -69 -38 -69 -69 0 -12 -5
  -31 -11 -42 -15 -29 23 -105 63 -125 27 -14 34 -14 62 -1 17 9 50 20 74 27 38
  10 42 13 36 35 -4 14 0 33 10 47 9 12 16 30 16 39 0 23 -46 76 -81 94 -33 17
  -39 18 -59 5z m80 -110 c0 -5 -4 -10 -10 -10 -5 0 -10 5 -10 10 0 6 5 10 10
  10 6 0 10 -4 10 -10z m-110 -39 c0 -13 -26 -32 -33 -24 -14 13 -6 33 13 33 11
  0 20 -4 20 -9z"/>
  <path d="M6451 5534 c-26 -33 -27 -54 -3 -54 25 0 52 31 52 58 0 30 -24 28
  -49 -4z"/>
  <path d="M5166 5589 c-42 -33 -30 -89 19 -89 48 0 76 78 36 100 -25 13 -24 13
  -55 -11z"/>
  <path d="M5285 5460 c-3 -5 27 -31 67 -58 84 -57 188 -162 243 -244 36 -55 55
  -71 55 -47 0 6 -17 43 -37 81 -41 79 -136 181 -204 221 -65 39 -117 58 -124
  47z"/>
  <path d="M5405 4838 c-28 -22 -34 -68 -11 -88 38 -31 96 19 83 72 -9 34 -40
  41 -72 16z"/>
  <path d="M5271 4674 c-78 -65 -48 -184 46 -184 76 0 126 96 88 169 -25 49 -86
  56 -134 15z m87 -26 c19 -19 14 -70 -10 -95 -25 -27 -41 -29 -62 -7 -23 23
  -19 61 9 89 27 28 45 31 63 13z"/>
  <path d="M4540 4158 c-35 -62 -87 -148 -116 -191 -30 -43 -54 -84 -54 -92 0
  -28 281 -195 330 -195 19 0 102 131 171 268 54 108 72 172 48 172 -18 0 -201
  88 -256 123 -24 15 -47 27 -52 27 -4 0 -37 -51 -71 -112z m158 30 c42 -23 78
  -42 80 -44 2 -1 -13 -34 -32 -73 -20 -39 -36 -77 -36 -85 0 -7 25 -24 55 -37
  39 -17 53 -28 49 -39 -8 -22 -82 -151 -102 -178 l-17 -22 -83 39 c-90 44 -202
  116 -202 131 0 5 24 45 53 89 29 44 76 121 103 170 27 50 50 91 52 91 2 0 38
  -19 80 -42z m147 -112 c19 -14 19 -16 3 -50 -16 -33 -19 -35 -43 -24 -29 13
  -30 19 -10 58 18 34 23 36 50 16z"/>
  <path d="M4636 4151 c-9 -14 27 -51 53 -53 37 -4 36 19 -1 42 -37 22 -44 24
  -52 11z"/>
  <path d="M4603 4093 c-20 -7 3 -42 34 -54 36 -13 53 4 29 30 -19 21 -44 30
  -63 24z"/>
  <path d="M4560 4016 c0 -18 38 -46 62 -46 26 0 22 25 -7 44 -30 20 -55 21 -55
  2z"/>
  <path d="M4505 3945 c-14 -13 -25 -31 -25 -40 0 -20 44 -65 63 -65 25 0 67 41
  67 65 0 24 -42 65 -67 65 -8 0 -25 -11 -38 -25z m53 -39 c-2 -13 -10 -21 -23
  -21 -23 0 -33 34 -14 45 20 13 40 -1 37 -24z"/>
  <path d="M4676 3894 c-4 -10 -2 -22 3 -27 15 -15 46 -3 46 18 0 26 -40 33 -49
  9z"/>
  <path d="M4630 3807 c0 -27 19 -40 39 -27 20 12 8 45 -17 48 -18 3 -22 -1 -22
  -21z"/>
  <path d="M5473 4183 c-8 -3 0 -21 22 -52 37 -52 95 -168 95 -191 0 -11 6 -9
  21 7 30 30 37 108 14 156 -24 52 -109 96 -152 80z"/>
  <path d="M5090 4025 c0 -3 28 -40 63 -81 34 -41 61 -83 59 -92 -2 -15 -1 -15
  7 -2 6 8 11 24 11 34 0 32 -47 103 -84 125 -32 20 -56 27 -56 16z"/>
  <path d="M5379 4001 c-24 -24 -29 -38 -29 -76 0 -40 5 -52 34 -81 52 -52 119
  -45 151 16 57 110 -71 226 -156 141z m112 -51 c20 0 26 -15 9 -25 -6 -3 -7
  -17 -4 -31 6 -23 4 -24 -19 -19 -14 4 -28 2 -31 -4 -12 -18 -26 -12 -26 10 0
  12 -8 27 -17 34 -15 11 -15 13 5 19 12 4 25 19 28 32 6 25 7 25 21 4 8 -11 23
  -20 34 -20z"/>
  <path d="M5632 3760 c0 -14 2 -19 5 -12 2 6 2 18 0 25 -3 6 -5 1 -5 -13z"/>
  <path d="M5263 3675 c0 -38 2 -53 4 -32 2 20 2 52 0 70 -2 17 -4 1 -4 -38z"/>
  <path d="M4570 3269 c-76 -65 -148 -118 -202 -149 -32 -17 -58 -35 -58 -39 0
  -13 140 -145 147 -138 4 4 -9 24 -29 44 l-37 36 67 39 c37 22 100 67 140 100
  40 33 76 58 80 56 26 -12 122 -83 122 -91 0 -14 -77 -82 -132 -118 l-48 -31
  67 -50 c37 -27 95 -66 128 -86 33 -20 62 -40 64 -45 2 -5 15 9 29 30 14 21 38
  53 54 71 31 36 37 76 12 86 -9 3 -35 6 -60 6 -35 0 -47 5 -60 25 -33 50 3 84
  114 105 34 7 62 16 62 19 0 4 -39 33 -86 64 l-86 57 -45 -41 c-39 -36 -46 -39
  -61 -27 -107 89 -130 108 -138 108 -5 0 -25 -14 -44 -31z"/>
  <path d="M5250 3158 c0 -18 161 -89 174 -77 22 20 -61 73 -133 85 -33 5 -41 3
  -41 -8z"/>
  <path d="M5270 3069 c0 -18 32 -38 63 -39 32 0 34 10 9 33 -21 19 -72 23 -72
  6z"/>
  <path d="M5022 2813 c-17 -27 -43 -65 -58 -86 -15 -20 -24 -40 -21 -43 11 -11
  56 25 94 76 l36 49 76 -29 c42 -15 84 -31 94 -35 36 -15 16 21 -26 46 -35 21
  -147 69 -162 69 -2 0 -17 -21 -33 -47z"/>
  <path d="M4809 5251 c-34 -35 -38 -75 -9 -91 17 -9 25 -6 50 19 31 31 39 68
  18 89 -18 18 -26 15 -59 -17z"/>
  <path d="M5090 5098 c-23 -38 -25 -59 -8 -76 33 -33 91 17 86 72 -2 25 -8 32
  -30 34 -22 3 -32 -3 -48 -30z"/>
  <path d="M4854 5067 c-7 -20 -2 -47 11 -50 14 -3 19 43 6 56 -7 7 -12 6 -17
  -6z"/>
  <path d="M4936 5011 c-12 -13 -14 -21 -6 -26 13 -8 52 24 44 36 -8 14 -19 11
  -38 -10z"/>
  <path d="M3169 4711 c-34 -35 -37 -68 -9 -104 25 -31 71 -42 130 -30 63 12 64
  33 1 33 -70 0 -101 14 -101 44 0 33 26 46 94 46 62 0 72 12 25 29 -59 20 -108
  14 -140 -18z"/>
  <path d="M2220 4086 c0 -2 8 -10 18 -17 15 -13 16 -12 3 4 -13 16 -21 21 -21
  13z"/>
  <path d="M2104 4026 c-18 -14 -18 -15 9 -25 39 -15 89 -14 112 3 18 13 18 14
  -3 25 -29 15 -94 14 -118 -3z"/>
  <path d="M2110 3941 c-31 -4 -45 -11 -45 -21 0 -12 18 -16 94 -18 91 -3 127 7
  106 27 -14 12 -101 18 -155 12z"/>
  <path d="M2291 3874 c0 -11 3 -14 6 -6 3 7 2 16 -1 19 -3 4 -6 -2 -5 -13z"/>
  <path d="M2075 3843 c-35 -9 -40 -22 -11 -33 29 -11 157 -14 194 -4 32 9 27
  30 -9 38 -35 7 -143 6 -174 -1z"/>
  <path d="M2050 3740 c-12 -7 -12 -12 -2 -22 8 -8 46 -12 112 -12 66 0 104 4
  112 12 22 22 -11 32 -112 32 -52 0 -102 -5 -110 -10z"/>
  <path d="M2088 3653 c-30 -5 -38 -27 -12 -37 9 -3 51 -6 94 -6 86 0 110 5 110
  25 0 21 -107 31 -192 18z"/>
  <path d="M2292 3590 c0 -14 2 -19 5 -12 2 6 2 18 0 25 -3 6 -5 1 -5 -13z"/>
  <path d="M2090 3550 c-12 -7 -12 -12 -2 -22 15 -15 135 -18 167 -5 20 8 20 9
  1 23 -23 16 -142 19 -166 4z"/>
  <path d="M2281 3514 c0 -11 3 -14 6 -6 3 7 2 16 -1 19 -3 4 -6 -2 -5 -13z"/>
  <path d="M2140 3461 c-14 -4 -25 -13 -25 -21 0 -18 101 -26 125 -11 32 21 -48
  46 -100 32z"/>
  <path d="M3155 3998 c17 -64 38 -109 49 -105 16 6 11 72 -8 102 -21 32 -50 34
  -41 3z"/>
  <path d="M3235 3988 c4 -18 14 -50 22 -71 12 -30 18 -35 29 -26 19 15 17 36
  -6 87 -24 52 -55 59 -45 10z"/>
  <path d="M3073 3981 c9 -46 35 -101 46 -101 17 0 13 69 -6 101 -23 39 -47 39
  -40 0z"/>
  <path d="M3460 3200 c0 -13 79 -100 91 -100 20 0 7 41 -22 75 -29 33 -69 47
  -69 25z"/>
  <path d="M3390 3167 c0 -13 80 -97 93 -97 19 0 3 46 -27 76 -35 35 -66 45 -66
  21z"/>
  <path d="M3316 3131 c-8 -12 72 -101 90 -101 43 0 -33 107 -78 110 -4 0 -9 -4
  -12 -9z"/>
  <path d="M2502 2735 c-19 -8 -32 -20 -29 -27 9 -28 124 -2 135 30 5 17 -64 15
  -106 -3z"/>
  <path d="M2585 2663 c-61 -16 -125 -46 -125 -60 0 -13 9 -14 51 -9 69 9 159
  44 159 62 0 14 -42 18 -85 7z"/>
  <path d="M2607 2569 c-51 -12 -137 -49 -137 -60 0 -17 18 -18 81 -4 85 17 149
  44 149 61 0 16 -34 17 -93 3z"/>
  <path d="M2632 2475 c-72 -17 -132 -45 -132 -62 0 -15 19 -16 77 -3 75 17 153
  51 153 66 0 17 -26 17 -98 -1z"/>
  <path d="M2653 2380 c-101 -27 -133 -46 -104 -64 25 -16 215 46 208 68 -6 17
  -27 17 -104 -4z"/>
  <path d="M2771 2354 c0 -11 3 -14 6 -6 3 7 2 16 -1 19 -3 4 -6 -2 -5 -13z"/>
  <path d="M2690 2294 c-74 -24 -100 -38 -100 -51 0 -33 167 9 178 45 4 12 -46
  16 -78 6z"/>
  <path d="M2782 2280 c0 -14 2 -19 5 -12 2 6 2 18 0 25 -3 6 -5 1 -5 -13z"/>
  <path d="M2672 2185 c-37 -16 -38 -38 -4 -43 26 -4 112 33 112 47 0 16 -69 13
  -108 -4z"/>
  <path d="M2781 2144 c0 -11 3 -14 6 -6 3 7 2 16 -1 19 -3 4 -6 -2 -5 -13z"/>
  <path d="M3514 1555 c-4 -9 -2 -21 4 -27 15 -15 44 -1 40 19 -4 23 -36 29 -44
  8z"/>
  <path d="M3543 1454 c-8 -22 10 -49 32 -49 10 0 22 7 28 16 15 24 1 49 -28 49
  -15 0 -28 -7 -32 -16z"/>
  <path d="M2952 1418 c12 -35 189 -90 225 -69 22 12 27 9 -114 51 -117 34 -116
  34 -111 18z"/>
  <path d="M2835 1394 c75 -60 309 -135 414 -133 l56 1 -90 19 c-114 23 -235 61
  -320 99 -75 34 -89 37 -60 14z"/>
  <path d="M2710 1323 c0 -13 61 -50 151 -92 139 -65 377 -120 455 -105 44 8 33
  24 -16 24 -83 0 -388 90 -520 154 -56 27 -70 31 -70 19z"/>
  <path d="M2670 1250 c97 -85 412 -189 590 -196 l95 -4 -86 15 c-172 28 -387
  94 -519 158 -105 52 -111 54 -80 27z"/>
  <path d="M2705 975 c32 -28 155 -82 236 -105 41 -11 110 -23 154 -25 73 -4 76
  -3 35 6 -171 40 -250 63 -327 95 -117 47 -122 49 -98 29z"/>
  <path d="M2787 842 c43 -37 123 -65 189 -66 72 -1 64 15 -16 36 -36 9 -92 26
  -124 37 -78 27 -88 26 -49 -7z"/>
  <path d="M3607 7396 c-49 -18 -67 -34 -84 -73 -62 -150 120 -270 232 -153 38
  40 46 120 16 167 -37 59 -100 82 -164 59z"/>
  <path d="M432 6113 c-97 -48 -109 -201 -21 -265 93 -69 235 -12 254 101 9 53
  -25 126 -74 158 -41 28 -110 30 -159 6z"/>
  <path d="M647 5416 c-245 -88 -368 -510 -194 -663 73 -64 161 -64 260 -1 123
  79 208 251 209 423 1 179 -128 293 -275 241z"/>
  <path d="M5025 946 c-148 -29 -258 -82 -350 -168 -81 -76 -116 -141 -123 -229
  -4 -60 -1 -75 22 -123 33 -67 90 -119 171 -156 80 -37 148 -50 255 -50 260 0
  500 127 583 308 30 65 30 171 0 227 -44 83 -137 149 -258 182 -76 20 -219 25
  -300 9z m-87 -227 c6 -49 -58 -65 -73 -18 -9 27 13 51 44 47 20 -2 27 -9 29
  -29z m209 -191 c46 -43 16 -121 -46 -121 -66 0 -98 76 -51 123 26 26 68 25 97
  -2z"/>
  <path d="M5960 731 c-75 -23 -125 -71 -149 -140 -52 -155 89 -309 248 -271
  169 40 219 257 85 368 -52 43 -126 60 -184 43z"/>
  </g>
</svg>
